<svg id="process-3" xmlns="http://www.w3.org/2000/svg" width="65.996" height="74.75" viewBox="0 0 65.996 74.75">
  <path id="Path_7" data-name="Path 7" d="M133.971,83h-.152a20.9,20.9,0,0,0-15.663,7.272,1.46,1.46,0,1,0,2.211,1.907,17.975,17.975,0,0,1,13.472-6.26h.131a17.96,17.96,0,0,1,13.059,30.29,20.219,20.219,0,0,0-5.558,12.633h-2.846V113.366h.925a3.849,3.849,0,0,0,3.844-3.844v-.195a3.844,3.844,0,1,0-7.689,0v1.119h-3.5v-1.119a3.849,3.849,0,0,0-3.844-3.844h-.247a3.849,3.849,0,0,0-3.844,3.844v.195a3.849,3.849,0,0,0,3.844,3.844h1.172v15.475h-2.812a19.656,19.656,0,0,0-5.447-12.515,17.844,17.844,0,0,1-5.007-12.95,1.46,1.46,0,1,0-2.919-.079,20.74,20.74,0,0,0,5.822,15.053,16.806,16.806,0,0,1,4.668,11.723V134.3a6.084,6.084,0,0,0,5.4,6.038v.33a4.964,4.964,0,0,0,9.927,0v-.326a6.084,6.084,0,0,0,5.436-6.042v-4.224a17.254,17.254,0,0,1,4.8-11.862A20.88,20.88,0,0,0,133.971,83Zm4.654,26.329a.925.925,0,0,1,1.849,0v.195a.926.926,0,0,1-.925.925h-.925Zm-10.515,1.119a.926.926,0,0,1-.925-.925v-.195a.926.926,0,0,1,.925-.925h.247a.926.926,0,0,1,.925.925v1.119Zm4.092,2.92h3.5v15.475h-3.5V113.366Zm3.8,27.3a2.044,2.044,0,0,1-4.088,0v-.292H136Zm5.436-6.368a3.159,3.159,0,0,1-3.156,3.156h-8.614a3.159,3.159,0,0,1-3.156-3.156v-2.538h14.926Z" transform="translate(-100.955 -70.881)" fill="#ffaa17"/>
  <path id="Path_8" data-name="Path 8" d="M247.46,8.372a1.46,1.46,0,0,0,1.46-1.46V1.46a1.46,1.46,0,0,0-2.92,0V6.912A1.46,1.46,0,0,0,247.46,8.372Z" transform="translate(-214.462)" fill="#ffaa17"/>
  <path id="Path_9" data-name="Path 9" d="M431.588,216.021h-5.452a1.46,1.46,0,1,0,0,2.92h5.452a1.46,1.46,0,1,0,0-2.92Z" transform="translate(-367.052 -184.483)" fill="#ffaa17"/>
  <path id="Path_10" data-name="Path 10" d="M36.891,216.021H31.439a1.46,1.46,0,1,0,0,2.92h5.452a1.46,1.46,0,1,0,0-2.92Z" transform="translate(-29.979 -184.483)" fill="#ffaa17"/>
  <path id="Path_11" data-name="Path 11" d="M98.565,70.047A1.46,1.46,0,0,0,99.6,67.554L95.743,63.7a1.46,1.46,0,0,0-2.065,2.065l3.855,3.855A1.457,1.457,0,0,0,98.565,70.047Z" transform="translate(-84.013 -54.034)" fill="#ffaa17"/>
  <path id="Path_12" data-name="Path 12" d="M376.627,63.7l-3.855,3.855a1.46,1.46,0,1,0,2.065,2.065l3.855-3.855a1.46,1.46,0,0,0-2.065-2.065Z" transform="translate(-322.36 -54.034)" fill="#ffaa17"/>
  <path id="Path_13" data-name="Path 13" d="M255.025,127.492a14.675,14.675,0,0,0-8.314-2.564H246.6a1.46,1.46,0,0,0,.01,2.92h.1a11.78,11.78,0,0,1,10.986,7.417,1.46,1.46,0,0,0,2.708-1.091A14.742,14.742,0,0,0,255.025,127.492Z" transform="translate(-213.739 -106.689)" fill="#ffaa17"/>
  <path id="Path_14" data-name="Path 14" d="M337.334,216.448a1.461,1.461,0,1,0,1.034-.428A1.469,1.469,0,0,0,337.334,216.448Z" transform="translate(-292.098 -184.482)" fill="#ffaa17"/>
  <path id="Path_15" data-name="Path 15" d="M123.931,164.938a1.463,1.463,0,1,0,1.032-.426A1.474,1.474,0,0,0,123.931,164.938Z" transform="translate(-109.849 -140.494)" fill="#ffaa17"/>
</svg>
