<svg id="process-2" xmlns="http://www.w3.org/2000/svg" width="74.775" height="74.785" viewBox="0 0 74.775 74.785">
  <path id="Path_16" data-name="Path 16" d="M340.163,394.147a1.461,1.461,0,1,0-2.027-2.1l-.014.014a1.463,1.463,0,0,0-.044,2.085,1.462,1.462,0,0,0,2.086,0Z" transform="translate(-288.347 -334.414)" fill="#ffaa17"/>
  <path id="Path_17" data-name="Path 17" d="M144.243,195.724a1.461,1.461,0,0,0-.862,1.877,30.678,30.678,0,0,1-46.215,35.88,1.46,1.46,0,1,0-1.664,2.4,33.6,33.6,0,0,0,50.617-39.3A1.461,1.461,0,0,0,144.243,195.724Z" transform="translate(-81.022 -167.058)" fill="#ffaa17"/>
  <path id="Path_18" data-name="Path 18" d="M2.957,85.655a30.692,30.692,0,0,1,41-28.887,1.46,1.46,0,0,0,.983-2.75,33.6,33.6,0,0,0-38.8,50.942,1.46,1.46,0,0,0,2.389-1.681A30.473,30.473,0,0,1,2.957,85.655Z" transform="translate(-0.036 -44.46)" fill="#ffaa17"/>
  <path id="Path_19" data-name="Path 19" d="M119.1,12.112a1.46,1.46,0,0,0-1.349-.9h-7.674l.825-.825a1.461,1.461,0,1,0-2.066-2.065L108,9.156V1.461A1.46,1.46,0,0,0,105.505.428L92.631,13.3a1.461,1.461,0,0,0-.428,1.033V19.4a25.707,25.707,0,0,0-14.179-4.2,26,26,0,1,0,13.46,48.24,1.46,1.46,0,0,0-1.514-2.5A23.077,23.077,0,1,1,92.2,22.99v1.961l-2.661,2.661a17.839,17.839,0,1,0,2.065,2.065l2.672-2.672h1.943A23.088,23.088,0,0,1,97.648,53.34a1.46,1.46,0,1,0,2.482,1.54,26.007,26.007,0,0,0-.325-27.873h5.067a1.461,1.461,0,0,0,1.033-.428L118.781,13.7A1.46,1.46,0,0,0,119.1,12.112Zm-14.02-7.125v7.09L95.124,22.03v-7.09ZM92.92,41.2a14.913,14.913,0,1,1-5.451-11.511l-3.326,3.326a10.233,10.233,0,1,0,2.065,2.065l3.326-3.326A14.828,14.828,0,0,1,92.92,41.2Zm-7.594,0a7.311,7.311,0,1,1-3.278-6.089l-5.057,5.057a1.46,1.46,0,1,0,2.065,2.065l5.057-5.057A7.258,7.258,0,0,1,85.326,41.2Zm18.942-17.11H97.2l9.954-9.954h7.069Z" transform="translate(-44.434 0)" fill="#ffaa17"/>
  <path id="Path_20" data-name="Path 20" d="M65.728,427.37a1.461,1.461,0,1,0,1.032.428A1.466,1.466,0,0,0,65.728,427.37Z" transform="translate(-54.885 -364.946)" fill="#ffaa17"/>
</svg>
