<svg id="process-1" xmlns="http://www.w3.org/2000/svg" width="74.687" height="74.687" viewBox="0 0 74.687 74.687">
  <path id="Path_328" data-name="Path 328" d="M246.818,480.818A4.824,4.824,0,0,0,251.637,476h-2.409a2.409,2.409,0,1,1-4.818,0H242a4.824,4.824,0,0,0,4.818,4.819Zm0,0" transform="translate(-226.34 -443.475)" fill="#ffaa17"/>
  <path id="Path_329" data-name="Path 329" d="M206.872,380.728a21.489,21.489,0,0,0,5.373-2.229l2.964,1.482,6.34-6.338-1.483-2.965A21.561,21.561,0,0,0,222.3,365.3l3.138-1.047v-8.963l-3.139-1.047a21.48,21.48,0,0,0-2.23-5.372l.573-1.146h10.82a7.229,7.229,0,0,0,1.2-14.356v-.1a12.059,12.059,0,0,0-12.046-12.046,11.86,11.86,0,0,0-4.391.834,15.64,15.64,0,0,0-28.8,3.563,5.98,5.98,0,0,0-7.839,1.742,5.693,5.693,0,0,0-1.136-.115,6.032,6.032,0,0,0-5.982,5.32,6,6,0,0,0-1.61,10.039,4.812,4.812,0,0,0,3.978,7.529h1.443a9.247,9.247,0,0,0,3.094,3.361l-.584,1.547-6.728.748A9.069,9.069,0,0,0,164,364.806v8.221a6.03,6.03,0,0,0,6.023,6.023v2.409H164v7.228h74.687v-7.228H206.629Zm10.8-31.16a19.119,19.119,0,0,1,2.441,5.88l.151.659,2.764.922v5.492l-2.764.922-.151.659a19.121,19.121,0,0,1-2.441,5.88l-.359.573,1.306,2.612-3.884,3.882-2.61-1.3-.575.358a19.083,19.083,0,0,1-5.88,2.441l-.66.151-.92,2.764h-5.155V379.05a6.019,6.019,0,0,0,4.96-2.619,16.85,16.85,0,0,0,9.248-28.7h4.8L217.311,349Zm-32.59,29.481a4.216,4.216,0,1,0,0-8.432h-7.83V365.8h14.455v15.66H177.251V379.05Zm0-6.023a1.807,1.807,0,1,1,0,3.614h-3.012v-3.614Zm9.035,6.023h2.409v2.409h-2.409Zm-4.538-25.55a9.24,9.24,0,0,0,3.093-3.361h1.445a4.8,4.8,0,0,0,4.149-2.409h1.874v4.933a7.205,7.205,0,0,0-4.675,2.972l-5.3-.589Zm4.538-9.384v-1.2a2.409,2.409,0,1,1,0,4.818h-.476a13.611,13.611,0,0,0,.476-3.614Zm15.191,3.614a14.353,14.353,0,0,1,6.416,10.842h-7.26a7.237,7.237,0,0,0-5.915-5.915v-4.927Zm-4.35,25.3v-7.014a7.216,7.216,0,0,0,3.5-5.033h7.282a14.434,14.434,0,0,1-10.862,12.8,5.867,5.867,0,0,0,.077-.755Zm-3.614-18.069a4.8,4.8,0,0,1,3.439,8.171,8.962,8.962,0,0,0-6.487-7.052,4.754,4.754,0,0,1,3.048-1.119Zm1.2-38.548a13.291,13.291,0,0,1,12.032,7.727l.526,1.143,1.119-.575a9.516,9.516,0,0,1,4.392-1.068,9.6,9.6,0,0,1,9.572,10.715l-.149,1.338h1.347l.146-.007a4.819,4.819,0,0,1-.074,9.637H198.934a4.781,4.781,0,0,0-.84-2.71,6,6,0,0,0-1.61-10.039,6.032,6.032,0,0,0-5.982-5.32,5.824,5.824,0,0,0-.991.1,13.257,13.257,0,0,1,13.037-10.941Zm-28.6,18.2.947-.242-.041-.977a.4.4,0,0,0-.014-.117l0,0a3.588,3.588,0,0,1,4.884-3.367l1.031.391.48-.994a3.585,3.585,0,0,1,6.482,0l.479.995,1.031-.392a3.59,3.59,0,0,1,4.888,3.29l-.06,1.17.947.242a3.6,3.6,0,0,1,1.23,6.407,4.767,4.767,0,0,0-2.12-.513h-.222a3.609,3.609,0,0,0-3.392-2.409,6.736,6.736,0,0,1-3.745-1.133l-2.278-1.519-2.278,1.518a6.727,6.727,0,0,1-3.745,1.135,3.609,3.609,0,0,0-3.392,2.409h-.222a4.762,4.762,0,0,0-2.12.513,3.6,3.6,0,0,1,1.23-6.408Zm.89,13.123a2.409,2.409,0,0,1,0-4.818v1.2a13.61,13.61,0,0,0,.476,3.614Zm2.409-3.614v-2.409a1.206,1.206,0,0,1,1.2-1.2,9.144,9.144,0,0,0,5.082-1.538l.941-.628.941.628A9.144,9.144,0,0,0,190.5,340.5a1.206,1.206,0,0,1,1.2,1.2v2.409c0,5.122-2.837,8.432-7.228,8.432s-7.228-3.31-7.228-8.432Zm7.228,10.842a9.856,9.856,0,0,0,2.912-.431l.5,1.335-3.416,3.416-3.416-3.416.5-1.335a9.855,9.855,0,0,0,2.912.431Zm-18.069,18.069v-8.221a6.657,6.657,0,0,1,5.923-6.617l6.885-.766,5.261,5.261,5.261-5.261,6.885.766a6.657,6.657,0,0,1,5.924,6.617v8.221a3.618,3.618,0,0,1-3.614,3.614h-4.818v-3.614h2.616a1.213,1.213,0,0,1,.852.353l.5.5,1.7-1.7-.5-.5a3.435,3.435,0,0,0-.353-.29V365.8h-2.409v4.819h-2.409V363.39H174.842v7.228h-2.409V365.8h-2.409v5.587a3.445,3.445,0,0,0-.353.29l-.5.5,1.7,1.7.5-.5a1.214,1.214,0,0,1,.852-.353h7.435v3.614h-9.637a3.618,3.618,0,0,1-3.614-3.614Zm6.023,6.023h2.409v2.409h-2.409Zm63.845,7.228H166.409v-2.409h69.868Zm0,0" transform="translate(-164 -314)" fill="#ffaa17"/>
  <path id="Path_330" data-name="Path 330" d="M318.639,340.409V338a10.886,10.886,0,0,0-9.385,5.41l2.084,1.209a8.468,8.468,0,0,1,7.3-4.21Zm0,0" transform="translate(-280.091 -333.181)" fill="#ffaa17"/>
  <rect id="Rectangle_143" data-name="Rectangle 143" width="2.31" height="1.54" transform="translate(58.902 19.634)" fill="#ffaa17"/>
  <rect id="Rectangle_144" data-name="Rectangle 144" width="3.08" height="1.54" transform="translate(44.273 19.634)" fill="#ffaa17"/>
  <rect id="Rectangle_145" data-name="Rectangle 145" width="2.31" height="1.54" transform="translate(39.653 19.634)" fill="#ffaa17"/>
  <rect id="Rectangle_146" data-name="Rectangle 146" width="1.54" height="1.54" transform="translate(49.663 19.634)" fill="#ffaa17"/>
  <rect id="Rectangle_147" data-name="Rectangle 147" width="2.31" height="1.54" transform="translate(54.283 19.634)" fill="#ffaa17"/>
  <path id="Path_331" data-name="Path 331" d="M244.409,453.2a1.2,1.2,0,1,1-1.2-1.2,1.205,1.205,0,0,1,1.2,1.2Zm0,0" transform="translate(-226.34 -424.294)" fill="#ffaa17"/>
  <path id="Path_332" data-name="Path 332" d="M280.409,453.2a1.2,1.2,0,1,1-1.2-1.2,1.205,1.205,0,0,1,1.2,1.2Zm0,0" transform="translate(-255.112 -424.294)" fill="#ffaa17"/>
</svg>
