<svg xmlns="http://www.w3.org/2000/svg" width="56" height="56" viewBox="0 0 56 56">
  <path id="project-icon-3" d="M55.1,56H49.7a.875.875,0,1,1,0-1.75h4.535A26.26,26.26,0,0,0,36.3,30.212a17.735,17.735,0,0,1-3.8,1.474l-.033.009a17.876,17.876,0,0,1-8.936,0v0A17.806,17.806,0,0,1,19.7,30.212,26.256,26.256,0,0,0,1.749,55.123a.875.875,0,0,1-1.749,0A28.01,28.01,0,0,1,19.492,28.446a.869.869,0,0,1,.571,0,.888.888,0,0,1,.182.085,15.935,15.935,0,0,0,3.721,1.48l0,0v0a16.235,16.235,0,0,0,8.057,0L32.066,30a15.886,15.886,0,0,0,3.716-1.487.875.875,0,0,1,.7-.075A28.016,28.016,0,0,1,56,55.1v.023a.877.877,0,0,1-.876.876ZM15.261,56a.875.875,0,0,1,0-1.75h29.2a15.105,15.105,0,0,0-.279-2.2,15.292,15.292,0,0,0-.9-2.928.872.872,0,0,1,1.607-.677,17.2,17.2,0,0,1,1.35,6.672v0h0A.877.877,0,0,1,45.36,56ZM5.216,56a.875.875,0,1,1,0-1.75H9.788a17.325,17.325,0,0,1,.32-2.535,16.989,16.989,0,0,1,1.008-3.263.872.872,0,0,1,1.607.676,15.309,15.309,0,0,0-.906,2.928,15.552,15.552,0,0,0-.3,3.068h0A.877.877,0,0,1,10.64,56Zm24.956-4.27-2.173-6-2.17,6a.873.873,0,1,1-1.643-.594l2.989-8.261a.884.884,0,0,1,.526-.533.872.872,0,0,1,1.118.522l3,8.271a.873.873,0,0,1-1.643.594Zm-2.791-11.2-2.713-2.713a.875.875,0,0,1,0-1.235l2.713-2.713a.874.874,0,0,1,1.237,0l2.713,2.713a.873.873,0,0,1,0,1.235l-2.713,2.713a.877.877,0,0,1-1.237,0Zm-.855-3.33L28,38.673,29.475,37.2,28,35.724ZM17.793,24.646a14.465,14.465,0,0,1-3.729-13.98.948.948,0,0,1,.042-.153q.13-.46.289-.907v0l.035-.1h0a14.394,14.394,0,0,1,1.379-2.8l.005-.008.046-.071.013-.021.04-.061.015-.024.038-.058.045-.068.019-.028.038-.055.014-.02.041-.06.008-.012.046-.065h0a14.52,14.52,0,0,1,2.312-2.575h0l.046-.041.045-.039.014-.012A14.362,14.362,0,0,1,27.833,0h.545l.082,0H28.5l.05,0h.043l.039,0,.046,0h.038l.048,0h.025l.2.012h0l.072,0h0a14.435,14.435,0,0,1,9.141,24.6h0l0,0h0a14.432,14.432,0,0,1-20.412,0Zm-2.48-10.209a12.688,12.688,0,0,0,21.656,8.976l0,0A12.736,12.736,0,0,0,40.389,11.7H29.972A7.678,7.678,0,0,1,24.54,9.439l0-.007a7.8,7.8,0,0,1-1.387-1.887,7.774,7.774,0,0,1-1.387,1.887l0,0a7.678,7.678,0,0,1-5.432,2.26H15.61A12.743,12.743,0,0,0,15.313,14.438ZM24.027,4A5.936,5.936,0,0,0,25.77,8.2l.005.007a5.933,5.933,0,0,0,4.2,1.742h9.9A12.7,12.7,0,0,0,28.576,1.763h-.008l-.073,0h-.007l-.159-.005h-.581a12.652,12.652,0,0,0-3.721.632Zm-7.7,5.945a5.942,5.942,0,0,0,4.2-1.742l0,0A5.931,5.931,0,0,0,22.274,4v-.89q-.4.2-.785.433l-.016.009-.033.02A12.8,12.8,0,0,0,16.62,8.82q-.271.549-.49,1.125Zm9.539,15.013a10.659,10.659,0,0,1-2.043-.63.872.872,0,0,1,.675-1.607,9.005,9.005,0,0,0,1.711.53A9.141,9.141,0,0,0,28,23.426a8.8,8.8,0,0,0,3.5-.7.872.872,0,0,1,.677,1.607,10.618,10.618,0,0,1-2.043.63,10.628,10.628,0,0,1-4.267,0Z" fill="#1c1e22"/>
</svg>
