<svg xmlns="http://www.w3.org/2000/svg" width="47.742" height="60.947" viewBox="0 0 47.742 60.947">
  <path id="project-icon-1" d="M.963,60.947v0a.951.951,0,0,1-.95-.949L0,1.049l0-.1A.953.953,0,0,1,.955,0h42V0a.951.951,0,0,1,.951.949l.008,55.232a.951.951,0,0,1-1.9,0L42.006,1.9H1.905L1.913,59.04H45.836l0-20a.951.951,0,0,1,1.9,0l0,20.852,0,.1a.955.955,0,0,1-.956.953ZM8.595,43.812a.953.953,0,1,1,0-1.905H25.936a.953.953,0,1,1,0,1.905Zm0-5.713a.952.952,0,1,1,0-1.9H35.423a.952.952,0,1,1,0,1.9Zm0-5.716a.952.952,0,1,1,0-1.9H35.423a.952.952,0,1,1,0,1.9Zm0-5.715a.952.952,0,1,1,0-1.9H35.423a.952.952,0,1,1,0,1.9Zm0-5.72a.952.952,0,1,1,0-1.9H35.423a.952.952,0,1,1,0,1.9Zm0-5.715a.951.951,0,1,1,0-1.9H35.423a.951.951,0,1,1,0,1.9Zm0-5.713a.952.952,0,1,1,0-1.9H35.423a.952.952,0,1,1,0,1.9Z" fill="#1c1e22"/>
</svg>
