<svg xmlns="http://www.w3.org/2000/svg" width="56" height="56" viewBox="0 0 56 56">
  <path id="project-icon-4" d="M7.184,48.82H7.176A24.5,24.5,0,0,1,23.594,7.009a.871.871,0,0,1,.9.841v.032h0v7.009a.875.875,0,0,1-.875.875H23.6A15.752,15.752,0,1,0,40.167,33.24H23.625a.875.875,0,0,1-.875-.874V20.118a.875.875,0,1,1,1.75,0V31.491H41.134a.875.875,0,0,1,.838,1.128A17.5,17.5,0,1,1,22.75,14.084V8.8A22.762,22.762,0,0,0,8.41,47.583l0,0A22.76,22.76,0,0,0,47.249,32.334a.872.872,0,1,1,1.743.063A24.5,24.5,0,0,1,7.184,48.82ZM30.651,26.283h-.023a.875.875,0,0,1-.875-.877V7.9h0V.893A.876.876,0,0,1,30.63.019h.118c.306-.007.616-.019.745-.019a24.427,24.427,0,0,1,17.324,7.18h.005A24.441,24.441,0,0,1,56,24.506l-.005.1-.015.769a.873.873,0,0,1-.871.857v0H48.1a.875.875,0,0,1-.875-.875l.008-.111.012-.345V24.9l.005-.389h0A15.759,15.759,0,0,0,35.65,9.306a.872.872,0,0,1,.46-1.681A17.511,17.511,0,0,1,48.995,24.483H54.25A22.688,22.688,0,0,0,47.589,8.412l0,0A22.669,22.669,0,0,0,31.507,1.749V7.9h0V24.531h9.63a.876.876,0,0,1,0,1.752Z" transform="translate(0 0)" fill="#1c1e22"/>
</svg>
