<svg xmlns="http://www.w3.org/2000/svg" width="56.255" height="47.811" viewBox="0 0 56.255 47.811">
  <path id="project-icon-2" d="M27.878,47.747h0a.867.867,0,0,1-.356-.264L.255,13.9a.889.889,0,0,1-.045-1.2L8.94.431A.886.886,0,0,1,9.7,0H46.714V0a.878.878,0,0,1,.325.063A.841.841,0,0,1,47.2.15a.862.862,0,0,1,.234.227l8.8,12.376-.007.293a.891.891,0,0,1-.011.51l-.006.281-27.3,33.623q-.021.029-.044.054c-.012.014-.025.027-.038.04a.88.88,0,0,1-.62.257A.861.861,0,0,1,27.878,47.747Zm.326-3.179L37.71,20.922a.879.879,0,1,1,1.63.657L31.191,41.852l22.48-27.685H52A.886.886,0,0,1,52,12.4h1.816l-6.89-9.687L46.1,4.758a.874.874,0,0,1-1.141.49A.884.884,0,0,1,44.474,4.1l.933-2.326H30.437L37.612,8.5a.88.88,0,0,1-1.2,1.291L28.2,2.094,17.216,12.4H34.371a.886.886,0,0,1,0,1.771H15.982Zm-2.99-2.719L14.086,14.167H2.736ZM13.374,12.4,9.48,2.71,2.591,12.4Zm1.724-.429L25.972,1.774H11Zm27.694,7.415a.887.887,0,0,1-.389-.392l-1.641-3.27-3.257-1.649a.885.885,0,0,1,0-1.577l3.257-1.648L42.4,7.572a.878.878,0,0,1,1.57,0l1.642,3.273,3.257,1.648a.885.885,0,0,1,0,1.577L45.614,15.72l-1.642,3.27a.876.876,0,0,1-1.181.392ZM42.2,11.9a.892.892,0,0,1-.388.39l-1.96.991,1.96.991a.881.881,0,0,1,.388.391l.986,1.968.986-1.968a.9.9,0,0,1,.391-.391l1.959-.991-1.959-.991a.888.888,0,0,1-.391-.39l-.986-1.967Z" fill="#222429"/>
</svg>
