<svg xmlns="http://www.w3.org/2000/svg" width="60.012" height="60" viewBox="0 0 60.012 60">
  <g id="service-3" transform="translate(-2 -2)">
    <path id="Path_17368" data-name="Path 17368" d="M61.12,54.05l-9.19-9.19a3.08,3.08,0,0,0-3.4-.57l-4.87-4.87a18,18,0,0,0-1.93-23.15A17.81,17.81,0,0,0,38,13.42a11,11,0,0,0-15.9-4.7,1,1,0,1,0,1.07,1.68,9,9,0,0,1,11.42,1.5,18,18,0,0,0-16.73,3,1,1,0,1,0,1.24,1.57A16,16,0,0,1,36.66,15l.13.06A16,16,0,1,1,14.86,36.48l1.57-1.34A14.27,14.27,0,0,0,19.1,38.9a14,14,0,0,0,23.14-5.38,1,1,0,0,0-1.9-.64,12,12,0,0,1-19.83,4.61A12.17,12.17,0,0,1,18,33.8l6.38-5.42a10.95,10.95,0,0,0,12.73-4.24A1,1,0,0,0,35.46,23,9,9,0,0,1,28,27a9.49,9.49,0,0,1-1.77-.18l2.42-2.06a1,1,0,0,0-1.3-1.52L24,26.07a9.08,9.08,0,0,1-4.33-4.64c.26-.32.53-.62.82-.92A12,12,0,0,1,41,29.24a1,1,0,1,0,2,0,14,14,0,1,0-27.34,3.9L14,34.57A16,16,0,0,1,16.44,19.1a1,1,0,1,0-1.57-1.24A18,18,0,0,0,12.4,35.94l-5.05,4.3A1,1,0,0,0,7,41V51a1,1,0,1,0,2,0V41.46l4.3-3.65a18.078,18.078,0,0,0,26.14,5.85l4.87,4.86a3,3,0,0,0,.58,3.41l9.19,9.19a3,3,0,0,0,4.24,0l2.83-2.83a3,3,0,0,0-.03-4.24ZM18.41,23.36a10.93,10.93,0,0,0,4,4.09l-5.05,4.3a12,12,0,0,1,1.05-8.39ZM41.73,41.73c.24-.24.45-.5.67-.75L47,45.56,45.56,47,41,42.4c.23-.22.49-.4.73-.67Zm18,15.15L56.9,59.71a1,1,0,0,1-1.42,0l-9.19-9.2a1,1,0,0,1,0-1.41l2.83-2.83a1,1,0,0,1,1.41,0l9.2,9.19a1,1,0,0,1-.02,1.42Z" fill="#ffaa17"/>
    <path id="Path_17369" data-name="Path 17369" d="M22.64,32a1,1,0,1,0,0,2H37.36a1,1,0,0,0,0-2Z" fill="#ffaa17"/>
    <path id="Path_17370" data-name="Path 17370" d="M3,34H8.39a1,1,0,0,0,0-2H4V26H5a5,5,0,0,1,2.7.8,1,1,0,1,0,1.09-1.68A7,7,0,0,0,5,24H4V12H5a7,7,0,0,0,7-7V4H44V5a7,7,0,0,0,7,7h1V24H51a6.83,6.83,0,0,0-1.59.19,1.006,1.006,0,0,0,.22,2,.85.85,0,0,0,.23,0A5.15,5.15,0,0,1,51,26h1v6H49.61a1,1,0,0,0,0,2H53a1,1,0,0,0,1-1V3a1,1,0,0,0-1-1H3A1,1,0,0,0,2,3V33A1,1,0,0,0,3,34ZM52,10H51a5,5,0,0,1-5-5V4h6ZM10,4V5a5,5,0,0,1-5,5H4V4Z" fill="#ffaa17"/>
    <path id="Path_17371" data-name="Path 17371" d="M23,56h6a1,1,0,0,0,0-2H23a1,1,0,0,0,0,2Z" fill="#ffaa17"/>
    <path id="Path_17372" data-name="Path 17372" d="M35,58H23a1,1,0,0,0,0,2H35a1,1,0,0,0,0-2Z" fill="#ffaa17"/>
    <path id="Path_17373" data-name="Path 17373" d="M17,54H3a1,1,0,0,0-1,1v6a1,1,0,0,0,1,1h7a1,1,0,0,0,0-2H4V56H16v4H14a1,1,0,0,0,0,2h3a1,1,0,0,0,1-1V55A1,1,0,0,0,17,54Z" fill="#ffaa17"/>
  </g>
</svg>
