<svg xmlns="http://www.w3.org/2000/svg" width="54.012" height="60" viewBox="0 0 54.012 60">
  <g id="service-4" transform="translate(-7 -2)">
    <path id="Path_17218" data-name="Path 17218" d="M13,14v6a1,1,0,0,0,1,1h6a1,1,0,0,0,1-1V14a1,1,0,0,0-1-1H14A1,1,0,0,0,13,14Zm2,1h4v4H15Z" fill="#ffaa17"/>
    <path id="Path_17219" data-name="Path 17219" d="M13,32a1,1,0,0,0,1,1h6a1,1,0,0,0,0-2H14A1,1,0,0,0,13,32Z" fill="#ffaa17"/>
    <circle id="Ellipse_949" data-name="Ellipse 949" cx="1" cy="1" r="1" transform="translate(11 6)" fill="#ffaa17"/>
    <circle id="Ellipse_950" data-name="Ellipse 950" cx="1" cy="1" r="1" transform="translate(15 6)" fill="#ffaa17"/>
    <path id="Path_17220" data-name="Path 17220" d="M26,51a3,3,0,0,0,0,6h7a3,3,0,0,0,0-6Zm8,3a1,1,0,0,1-1,1H26a1,1,0,0,1,0-2h7A1,1,0,0,1,34,54Z" fill="#ffaa17"/>
    <path id="Path_17221" data-name="Path 17221" d="M14,45h6a1,1,0,0,0,1-1V38a1,1,0,0,0-1-1H14a1,1,0,0,0-1,1v6A1,1,0,0,0,14,45Zm1-6h4v4H15Z" fill="#ffaa17"/>
    <path id="Path_17222" data-name="Path 17222" d="M23,20a1,1,0,0,0,1,1H38a1,1,0,0,0,0-2H24A1,1,0,0,0,23,20Z" fill="#ffaa17"/>
    <path id="Path_17223" data-name="Path 17223" d="M40,32a1,1,0,0,0-1-1H24a1,1,0,0,0,0,2H39A1,1,0,0,0,40,32Z" fill="#ffaa17"/>
    <path id="Path_17224" data-name="Path 17224" d="M37,44a1,1,0,0,0-1-1H24a1,1,0,0,0,0,2H36A1,1,0,0,0,37,44Z" fill="#ffaa17"/>
    <path id="Path_17225" data-name="Path 17225" d="M24.65,24.76a1,1,0,1,0-1.3-1.52l-6.19,5.31L14.8,25.4a1,1,0,0,0-1.6,1.2l3,4a1,1,0,0,0,.69.39H17a1,1,0,0,0,.65-.24Z" fill="#ffaa17"/>
    <path id="Path_17226" data-name="Path 17226" d="M32,17a1,1,0,0,0,0-2H26a1,1,0,0,0,0,2Z" fill="#ffaa17"/>
    <path id="Path_17227" data-name="Path 17227" d="M26,27a1,1,0,0,0,0,2h6a1,1,0,0,0,0-2Z" fill="#ffaa17"/>
    <path id="Path_17228" data-name="Path 17228" d="M59.47,10.41a3.05,3.05,0,0,0-4.14,1L40.52,35.23a1,1,0,0,0-.15.47L40,42.39a1.007,1.007,0,0,0,1.55.9l5.59-3.7a1,1,0,0,0,.34-.36L56.9,21.58a1,1,0,0,0-1.77-.95L45.8,38.06l-3.72,2.46.27-4.45L57,12.5a1.064,1.064,0,0,1,1.84,1.07L57,17.1a1,1,0,1,0,1.76.94l1.89-3.53a3.06,3.06,0,0,0-1.18-4.1Z" fill="#ffaa17"/>
    <path id="Path_17229" data-name="Path 17229" d="M8,32a1,1,0,0,0,1-1V6a2,2,0,0,1,2-2H47a2,2,0,0,1,2,2v8.89a1,1,0,1,0,2,0V6a4,4,0,0,0-4-4H11A4,4,0,0,0,7,6V31A1,1,0,0,0,8,32Z" fill="#ffaa17"/>
    <path id="Path_17230" data-name="Path 17230" d="M50,38.32a1,1,0,0,0-1,1V58a2,2,0,0,1-2,2H11a2,2,0,0,1-2-2V35a1,1,0,0,0-2,0V58a4,4,0,0,0,4,4H47a4,4,0,0,0,4-4V39.32A1,1,0,0,0,50,38.32Z" fill="#ffaa17"/>
  </g>
</svg>
