<svg xmlns="http://www.w3.org/2000/svg" width="59.997" height="59.997" viewBox="0 0 59.997 59.997">
  <g id="service-2" transform="translate(-2 -2)">
    <g id="Group_7051" data-name="Group 7051">
      <path id="Path_17209" data-name="Path 17209" d="M30,34a1,1,0,0,0,0,2h4a1,1,0,0,0,1-1V30a4,4,0,0,0-3.11-3.89,5,5,0,1,0-7.78,0A4,4,0,0,0,21,30v5a1,1,0,0,0,2,0V30a2,2,0,0,1,2-2h6a2,2,0,0,1,2,2v4ZM28,20a3,3,0,1,1-3,3,3,3,0,0,1,3-3Z" fill="#ffaa17"/>
      <circle id="Ellipse_946" data-name="Ellipse 946" cx="1" cy="1" r="1" transform="translate(6 6)" fill="#ffaa17"/>
      <circle id="Ellipse_947" data-name="Ellipse 947" cx="1" cy="1" r="1" transform="translate(10 6)" fill="#ffaa17"/>
      <circle id="Ellipse_948" data-name="Ellipse 948" cx="1" cy="1" r="1" transform="translate(14 6)" fill="#ffaa17"/>
      <path id="Path_17210" data-name="Path 17210" d="M23,6a1,1,0,0,0,0,2H37a1,1,0,0,0,0-2Z" fill="#ffaa17"/>
      <path id="Path_17211" data-name="Path 17211" d="M42,6a1,1,0,0,0,0,2h8a1,1,0,0,0,0-2Z" fill="#ffaa17"/>
      <path id="Path_17212" data-name="Path 17212" d="M12,46a1,1,0,0,0,0,2H22a1,1,0,0,0,0-2Z" fill="#ffaa17"/>
      <path id="Path_17213" data-name="Path 17213" d="M22,50H12a1,1,0,0,0,0,2H22a1,1,0,0,0,0-2Z" fill="#ffaa17"/>
      <path id="Path_17214" data-name="Path 17214" d="M54,15a1,1,0,0,0-1-1H49a1,1,0,0,0-1,1v4a1,1,0,0,0,1,1h4a1,1,0,0,0,1-1Zm-2,3H50V16h2Z" fill="#ffaa17"/>
      <path id="Path_17215" data-name="Path 17215" d="M53,22H49a1,1,0,0,0,0,2h4a1,1,0,0,0,0-2Z" fill="#ffaa17"/>
      <path id="Path_17216" data-name="Path 17216" d="M53,26H51a1,1,0,0,0,0,2h2a1,1,0,0,0,0-2Z" fill="#ffaa17"/>
      <path id="Path_17217" data-name="Path 17217" d="M61.12,54.05l-9.19-9.19a3,3,0,0,0-3.41-.58l-4.86-4.86A17.93,17.93,0,0,0,43.23,18H45a1,1,0,0,0,0-2H41.43a18,18,0,0,0-6.53-4H53a1,1,0,0,0,0-2H20V4H56V46.34a1,1,0,0,0,2,0V3a1,1,0,0,0-1-1H3A1,1,0,0,0,2,3V24a1,1,0,0,0,2,0V12H23.14a18,18,0,0,0-5.28,2.87,1,1,0,0,0,1.24,1.57,16,16,0,0,1,20.63.71l-1.08,1.72a14,14,0,1,0,3.59,14.65,1,1,0,0,0-1.9-.64A11.92,11.92,0,0,1,29,41H28V37a1,1,0,0,0-2,0v3.61A11.9,11.9,0,0,1,17.39,32H18a1,1,0,0,0,0-2h-.95c0-.33-.05-.66-.05-1a12,12,0,0,1,20.49-8.49l.08.1-2.42,3.86a1,1,0,1,0,1.7,1.06l2.06-3.29a12,12,0,0,1,2.08,7,1,1,0,1,0,2,0,13.94,13.94,0,0,0-2.94-8.87l1.11-1.79a16,16,0,1,1-24.72.48,1,1,0,0,0-1.57-1.24A18,18,0,0,0,11,30H7a1,1,0,0,0-1,1V54H4V28a1,1,0,0,0-2,0V55a1,1,0,0,0,1,1H44.34a1,1,0,0,0,0-2H28V47h1a17.87,17.87,0,0,0,10.42-3.34l4.86,4.86a3,3,0,0,0,.58,3.41l9.19,9.19a3,3,0,0,0,4.24,0l2.83-2.83a3,3,0,0,0,0-4.24ZM4,10V4H18v6ZM26,54H8V32h3.27a18,18,0,0,0,2.15,6H12a1,1,0,0,0,0,2h2.77a20.42,20.42,0,0,0,1.5,1.73l.3.27H12a1,1,0,0,0,0,2h7a17.56,17.56,0,0,0,7,2.74ZM41.73,41.73c.24-.24.45-.5.67-.74L47,45.57,45.57,47,41,42.4C41.23,42.18,41.49,42,41.73,41.73Zm18,15.15L56.9,59.71a1,1,0,0,1-1.42,0l-9.19-9.2a1,1,0,0,1,0-1.41l2.83-2.83a1,1,0,0,1,1.41,0l9.2,9.2a.979.979,0,0,1-.02,1.41Z" fill="#ffaa17"/>
    </g>
  </g>
</svg>
