<svg xmlns="http://www.w3.org/2000/svg" width="50.012" height="60.028" viewBox="0 0 50.012 60.028">
  <g id="service-5" transform="translate(-2 -1.972)">
    <g id="Group_7064" data-name="Group 7064">
      <path id="Path_17496" data-name="Path 17496" d="M47,42H43a1,1,0,0,0,0,2h4a1,1,0,0,0,0-2Z" fill="#ffaa17"/>
      <path id="Path_17497" data-name="Path 17497" d="M47,46H40a1,1,0,0,0,0,2h7a1,1,0,0,0,0-2Z" fill="#ffaa17"/>
      <path id="Path_17498" data-name="Path 17498" d="M9,44h4a1,1,0,0,0,0-2H9a1,1,0,0,0,0,2Z" fill="#ffaa17"/>
      <path id="Path_17499" data-name="Path 17499" d="M14,46H7a1,1,0,0,0,0,2h7a1,1,0,0,0,0-2Z" fill="#ffaa17"/>
      <path id="Path_17500" data-name="Path 17500" d="M49,20H46.34a19.8,19.8,0,0,0-3.72-7.45L44.44,11l6.7-1a1,1,0,0,0,.32-1.89l-3.7-1.86L45.9,2.55a1,1,0,0,0-1.9.31l-.95,6.63L41.3,11.05A20,20,0,0,0,7.66,20H5a3,3,0,0,0-3,3V49a3,3,0,0,0,3,3H17.13l-2.67,4H12a3,3,0,0,0-3,3v2a1,1,0,0,0,1,1H44a1,1,0,0,0,1-1V59a3,3,0,0,0-3-3H39.54l-2.67-4H49a3,3,0,0,0,3-3V23A3,3,0,0,0,49,20ZM45.54,6.31l.57,1.14a.94.94,0,0,0,.44.44l1.14.57-2.51.36ZM27,7a17.92,17.92,0,0,1,12.8,5.37l-2.25,2a15.24,15.24,0,1,0,1.32,1.51l2.25-2A18,18,0,1,1,27,7Zm8,18a8,8,0,1,1-2.72-6L30,21a5.08,5.08,0,1,0,1.32,1.5l2.29-2A7.91,7.91,0,0,1,35,25Zm-5,0a3.041,3.041,0,1,1-1.55-2.61l-2.11,1.86a1,1,0,1,0,1.32,1.5l2.12-1.87A3,3,0,0,1,30,25Zm3.79-7.32a10.08,10.08,0,1,0,1.32,1.5l2.26-2a12.9,12.9,0,1,1-1.32-1.51ZM43,59v1H11V59a1,1,0,0,1,1-1H42A1,1,0,0,1,43,59Zm-5.87-3H16.87l2.67-4H34.46ZM50,49a1,1,0,0,1-1,1H5a1,1,0,0,1-1-1V23a1,1,0,0,1,1-1H7.25A19.8,19.8,0,0,0,7,25a20,20,0,1,0,40,0,19.8,19.8,0,0,0-.25-3H49a1,1,0,0,1,1,1Z" fill="#ffaa17"/>
    </g>
  </g>
</svg>
